# xmcd
#
# Track frame offsets: 
#        150
#        15070
#        27182
#        38815
#        53085
#        64980
#        74662
#        89552
#        103810
#        115220
#        129595
#        140160
#        151940
#
# Disc length: 2199 seconds
#
# Revision: 0
# Processed by: cddbd v1.4PL0 Copyright (c) Steve Scherf et al.
# Submitted via: ExactAudioCopy v0.90b4
#
DISCID=b408950d
DTITLE=Major Dundee - Rainy river
DYEAR=1999
DGENRE=
TTITLE0=Cowboy country
TTITLE1=De Nada
TTITLE2=Caroline
TTITLE3=Rainy River
TTITLE4=When she's in your arms
TTITLE5=On and on
TTITLE6=Blue cafe
TTITLE7=I love omen
TTITLE8=Bonita Bonite
TTITLE9=Hey that's me
TTITLE10=Ought to be blue
TTITLE11=What my love can do
TTITLE12=Sexy country
EXTD=
EXTT0=
EXTT1=
EXTT2=
EXTT3=
EXTT4=
EXTT5=
EXTT6=
EXTT7=
EXTT8=
EXTT9=
EXTT10=
EXTT11=
EXTT12=
PLAYORDER=
